
In order to win the Street Dance Championships, a dance crew is forced to work with ballet dancers from the Royal Dance School in exchange for rehearsal space. 


Directors: Max Giwa, Dania Pasquini
Writer: Jane English
Stars:Charlotte Rampling, Rachel McDowall and George Sampson 

Media info:

General
Complete name                    : E:\torrent2\StreetDance 3D (2010). 1080p. MKV. AVC .TrueHD AC3v5.1\StreetDance 3D (2010). 1080p. MKV. AVC .TrueHD AC3v5.1.mkv
Format                           : Matroska
File size                        : 15.5 GiB
Duration                         : 1h 38mn
Overall bit rate                 : 22.5 Mbps
Movie name                       : movie
Encoded date                     : UTC 2011-02-21 18:09:17
Writing application              : mkvmerge v3.2.0 ('Beginnings') built on Feb 12 2010 16:46:17
Writing library                  : libebml v0.7.9 + libmatroska v0.8.1

Video
ID                               : 1
Format                           : AVC
Format/Info                      : Advanced Video Codec
Format profile                   : High@L4.1
Format settings, CABAC           : Yes
Format settings, ReFrames        : 4 frames
Muxing mode                      : Container profile=Unknown@0.0
Codec ID                         : V_MPEG4/ISO/AVC
Duration                         : 1h 38mn
Bit rate mode                    : Variable
Bit rate                         : 21.5 Mbps
Maximum bit rate                 : 28.0 Mbps
Width                            : 1 920 pixels
Height                           : 1 080 pixels
Display aspect ratio             : 16:9
Frame rate                       : 24.000 fps
Standard                         : NTSC
Color space                      : YUV
Chroma subsampling               : 4:2:0
Bit depth                        : 8 bits
Scan type                        : Progressive
Bits/(Pixel*Frame)               : 0.431
Stream size                      : 14.7 GiB (95%)
Color primaries                  : BT.709-5, BT.1361, IEC 61966-2-4, SMPTE RP177
Transfer characteristics         : BT.709-5, BT.1361
Matrix coefficients              : BT.709-5, BT.1361, IEC 61966-2-4 709, SMPTE RP177

Audio
ID                               : 2
Format                           : AC-3
Format/Info                      : Audio Coding 3
Mode extension                   : CM (complete main)
Codec ID                         : A_AC3
Duration                         : 1h 38mn
Bit rate mode                    : Constant
Bit rate                         : 640 Kbps
Channel(s)                       : 6 channels
Channel positions                : Front: L C R, Side: L R, LFE
Sampling rate                    : 48.0 KHz
Bit depth                        : 16 bits
Stream size                      : 450 MiB (3%)
Language                         : English

Text
ID                               : 3
Format                           : UTF-8
Codec ID                         : S_TEXT/UTF8
Codec ID/Info                    : UTF-8 Plain Text
Language                         : Dutch

Menu
00:00:00.000                     : en:00:00:00.000
00:07:21.375                     : en:00:07:21.375
00:11:33.500                     : en:00:11:33.500
00:17:36.083                     : en:00:17:36.083
00:23:34.833                     : en:00:23:34.833
00:28:07.292                     : en:00:28:07.292
00:33:51.208                     : en:00:33:51.208
00:37:41.625                     : en:00:37:41.625
00:44:14.333                     : en:00:44:14.333
00:48:46.792                     : en:00:48:46.792
00:52:14.625                     : en:00:52:14.625
01:00:52.000                     : en:01:00:52.000
01:07:06.375                     : en:01:07:06.375
01:10:22.458                     : en:01:10:22.458
01:17:42.875                     : en:01:17:42.875
01:21:16.667                     : en:01:21:16.667
01:25:49.875                     : en:01:25:49.875
01:32:12.125                     : en:01:32:12.125

